<svg width="138" height="30" viewBox="0 0 138 30" fill="none" xmlns="http://www.w3.org/2000/svg">
<path d="M55.3984 23H51.8828L45.0391 11.7734V23H41.5234V5.9375H45.0391L51.8945 17.1875V5.9375H55.3984V23ZM58.7139 16.5664C58.7139 14.6211 59.1748 13.0547 60.0967 11.8672C61.0264 10.6797 62.2764 10.0859 63.8467 10.0859C65.2373 10.0859 66.3194 10.5625 67.0928 11.5156L67.2334 10.3203H70.3037V22.5781C70.3037 23.6875 70.0498 24.6523 69.542 25.4727C69.042 26.293 68.335 26.918 67.4209 27.3477C66.5069 27.7773 65.4366 27.9922 64.21 27.9922C63.2803 27.9922 62.3741 27.8047 61.4912 27.4297C60.6084 27.0625 59.9405 26.5859 59.4873 26L60.9873 23.9375C61.8311 24.8828 62.8545 25.3555 64.0577 25.3555C64.9561 25.3555 65.6553 25.1133 66.1553 24.6289C66.6553 24.1523 66.9053 23.4727 66.9053 22.5898V21.9102C66.1241 22.793 65.0967 23.2344 63.8233 23.2344C62.2998 23.2344 61.0655 22.6406 60.1202 21.4531C59.1827 20.2578 58.7139 18.6758 58.7139 16.707V16.5664ZM62.1006 16.8125C62.1006 17.9609 62.3311 18.8633 62.792 19.5195C63.253 20.168 63.8858 20.4922 64.6905 20.4922C65.7217 20.4922 66.46 20.1055 66.9053 19.332V14C66.4522 13.2266 65.7217 12.8398 64.7139 12.8398C63.9014 12.8398 63.2608 13.1719 62.792 13.8359C62.3311 14.5 62.1006 15.4922 62.1006 16.8125ZM73.3497 16.543C73.3497 15.2852 73.5919 14.1641 74.0762 13.1797C74.5606 12.1953 75.2559 11.4336 76.1622 10.8945C77.0762 10.3555 78.1348 10.0859 79.338 10.0859C81.0489 10.0859 82.4434 10.6094 83.5216 11.6562C84.6075 12.7031 85.213 14.125 85.338 15.9219L85.3614 16.7891C85.3614 18.7344 84.8184 20.2969 83.7325 21.4766C82.6466 22.6484 81.1895 23.2344 79.3614 23.2344C77.5333 23.2344 76.0723 22.6484 74.9786 21.4766C73.8927 20.3047 73.3497 18.7109 73.3497 16.6953V16.543ZM76.7364 16.7891C76.7364 17.9922 76.963 18.9141 77.4161 19.5547C77.8692 20.1875 78.5177 20.5039 79.3614 20.5039C80.1817 20.5039 80.8223 20.1914 81.2833 19.5664C81.7442 18.9336 81.9747 17.9258 81.9747 16.543C81.9747 15.3633 81.7442 14.4492 81.2833 13.8008C80.8223 13.1523 80.1739 12.8281 79.338 12.8281C78.5098 12.8281 77.8692 13.1523 77.4161 13.8008C76.963 14.4414 76.7364 15.4375 76.7364 16.7891ZM87.88 16.5664C87.88 14.5898 88.3214 13.0156 89.2042 11.8438C90.0948 10.6719 91.3097 10.0859 92.8488 10.0859C94.0831 10.0859 95.1027 10.5469 95.9073 11.4688V5H99.3058V23H96.2472L96.0831 21.6523C95.2394 22.707 94.1534 23.2344 92.8253 23.2344C91.3331 23.2344 90.1339 22.6484 89.2277 21.4766C88.3292 20.2969 87.88 18.6602 87.88 16.5664ZM91.2667 16.8125C91.2667 18 91.4738 18.9102 91.8878 19.543C92.3019 20.1758 92.9034 20.4922 93.6925 20.4922C94.7394 20.4922 95.4777 20.0508 95.9073 19.168V14.1641C95.4855 13.2812 94.755 12.8398 93.7159 12.8398C92.0831 12.8398 91.2667 14.1641 91.2667 16.8125ZM106.465 23H103.067V10.3203H106.465V23ZM102.867 7.03906C102.867 6.53125 103.035 6.11328 103.371 5.78516C103.715 5.45703 104.18 5.29297 104.766 5.29297C105.344 5.29297 105.805 5.45703 106.149 5.78516C106.492 6.11328 106.664 6.53125 106.664 7.03906C106.664 7.55469 106.488 7.97656 106.137 8.30469C105.793 8.63281 105.336 8.79688 104.766 8.79688C104.195 8.79688 103.735 8.63281 103.383 8.30469C103.039 7.97656 102.867 7.55469 102.867 7.03906ZM113.343 10.3203L113.448 11.7852C114.355 10.6523 115.57 10.0859 117.093 10.0859C118.437 10.0859 119.437 10.4805 120.093 11.2695C120.749 12.0586 121.085 13.2383 121.101 14.8086V23H117.714V14.8906C117.714 14.1719 117.558 13.6523 117.245 13.332C116.933 13.0039 116.413 12.8398 115.687 12.8398C114.734 12.8398 114.019 13.2461 113.542 14.0586V23H110.155V10.3203H113.343ZM124.147 16.5664C124.147 14.6211 124.608 13.0547 125.53 11.8672C126.459 10.6797 127.709 10.0859 129.28 10.0859C130.67 10.0859 131.752 10.5625 132.526 11.5156L132.666 10.3203H135.737V22.5781C135.737 23.6875 135.483 24.6523 134.975 25.4727C134.475 26.293 133.768 26.918 132.854 27.3477C131.94 27.7773 130.869 27.9922 129.643 27.9922C128.713 27.9922 127.807 27.8047 126.924 27.4297C126.041 27.0625 125.373 26.5859 124.92 26L126.42 23.9375C127.264 24.8828 128.287 25.3555 129.49 25.3555C130.389 25.3555 131.088 25.1133 131.588 24.6289C132.088 24.1523 132.338 23.4727 132.338 22.5898V21.9102C131.557 22.793 130.53 23.2344 129.256 23.2344C127.733 23.2344 126.498 22.6406 125.553 21.4531C124.615 20.2578 124.147 18.6758 124.147 16.707V16.5664ZM127.533 16.8125C127.533 17.9609 127.764 18.8633 128.225 19.5195C128.686 20.168 129.319 20.4922 130.123 20.4922C131.155 20.4922 131.893 20.1055 132.338 19.332V14C131.885 13.2266 131.155 12.8398 130.147 12.8398C129.334 12.8398 128.694 13.1719 128.225 13.8359C127.764 14.5 127.533 15.4922 127.533 16.8125Z" fill="#092D43"/>
<circle cx="15" cy="15" r="14.5" fill="#537538"/>
<circle cx="15" cy="15" r="14.5" fill="url(#paint0_diamond)"/>
<circle cx="15" cy="15" r="14.5" stroke="black"/>
<defs>
<radialGradient id="paint0_diamond" cx="0" cy="0" r="1" gradientUnits="userSpaceOnUse" gradientTransform="translate(15 15) rotate(90) scale(15)">
<stop stop-color="#092D43"/>
<stop offset="1" stop-color="#272829" stop-opacity="0"/>
</radialGradient>
</defs>
</svg>
